<svg width="25" height="25" viewBox="0 0 25 25" fill="none" xmlns="http://www.w3.org/2000/svg">
<mask id="mask0_8489_39502" style="mask-type:alpha" maskUnits="userSpaceOnUse" x="0" y="0" width="25" height="25">
<circle cx="12.5" cy="12.5" r="12.5" fill="#D9D9D9"/>
</mask>
<g mask="url(#mask0_8489_39502)">
<path d="M64.5112 12.4119L65 11.7201L62.3704 11.7009C63.1409 10.6445 63.7603 9.85673 64.2679 9.24255L64.1741 9.05061H62.1076C61.4874 9.62641 60.699 10.5293 59.9661 11.509C59.008 11.5857 58.7077 11.6817 58.6326 11.8736C58.5387 12.0656 58.6701 12.2575 59.2904 12.4111C58.3151 13.8786 57.5564 15.3836 57.5259 16.744C57.5157 16.7528 57.5048 16.7624 57.4946 16.7712C56.969 17.2126 56.3245 17.6301 55.7801 17.6301C55.7473 17.6301 55.7152 17.6285 55.6847 17.6269C55.6753 17.6261 55.6652 17.6253 55.6558 17.6237C55.6448 17.6229 55.6347 17.6213 55.6237 17.6197C55.1724 17.5509 55.0144 17.2598 55.0144 16.9247C55.0144 16.4257 55.5033 15.7531 56.0664 14.9462C56.6108 14.1393 57.0245 13.5827 57.0433 12.9677C57.0433 12.1799 56.4606 11.5849 55.1646 11.5849C53.7372 11.5849 52.3278 12.3343 51.2007 13.2372L51.1444 13.1796C51.2946 12.9301 51.7459 12.3343 52.065 11.9696L51.9148 11.7009H50.0173C49.4159 12.1807 48.6087 13.122 47.9321 14.1785C47.4652 14.9126 47.0757 15.638 46.8489 16.3017C45.8579 17.0063 44.7003 17.7252 43.987 17.8468C43.0532 18.0059 42.4345 17.4685 42.3062 16.624C44.7621 15.3093 47.0906 13.7962 47.3487 13.4115C47.6803 13.0021 47.8258 12.5878 47.6662 12.1935C47.581 11.9816 47.4112 11.8177 47.2118 11.7129C46.7957 11.4938 46.249 11.393 45.6397 11.393C44.5126 11.393 43.4223 11.6809 42.4759 12.1983C42.2233 12.3367 41.9808 12.4902 41.7509 12.6606C41.4185 12.9141 41.1142 13.2012 40.8483 13.5139C40.6567 13.7394 40.4854 13.9793 40.3376 14.2288C39.9864 14.8222 39.7705 15.4756 39.7439 16.149C39.7424 16.1962 39.7408 16.2433 39.7408 16.2905C39.7408 16.5728 39.7721 16.8287 39.8315 17.0599C39.1448 17.3782 38.4268 17.6341 37.9833 17.6181C37.5445 17.5501 37.3607 17.2734 37.3607 16.9239C37.3607 16.4057 37.8113 15.6372 38.3752 14.7918C38.9203 13.9849 39.765 12.9477 40.0098 12.4103C40.0286 12.1416 39.7658 11.8153 39.4459 11.8153C39.033 11.8153 36.7405 11.8536 36.4214 11.8536C36.5528 11.7193 36.6842 11.5657 36.7968 11.4314C37.2849 10.874 37.4171 10.5477 36.8344 10.5285C35.8387 10.4709 35.5196 10.6629 35.0871 11.2587C34.8806 11.5274 34.768 11.7009 34.6366 11.8928C34.4129 12.2295 34.4481 12.4239 34.7023 12.511C34.3049 13.1148 33.8278 13.8274 33.5283 14.2176C32.908 15.0821 32.0633 16.1386 31.3304 16.7528C30.8048 17.1942 30.1604 17.6117 29.616 17.6117C29.5315 17.6117 29.4557 17.6037 29.386 17.5893C29.0458 17.4885 28.9003 17.2358 28.9003 16.9255C28.9003 16.4073 29.3508 15.6388 29.9148 14.7934C30.4599 13.9865 31.3046 12.9493 31.5494 12.4119C31.5682 12.1432 31.3054 11.8169 30.9855 11.8169C30.5726 11.8169 28.2801 11.8552 27.961 11.8552C28.0924 11.7209 28.2238 11.5673 28.3364 11.433C28.8245 10.8756 28.9567 10.5493 28.374 10.5301C27.3783 10.4725 27.0592 10.6645 26.6267 11.2603C26.4202 11.529 26.3075 11.7025 26.1761 11.8944C25.9525 12.2311 25.9876 12.4255 26.2418 12.5126C25.8445 13.1164 25.3674 13.829 25.0679 14.2192C24.4476 15.0837 23.6029 16.1402 22.87 16.7544C22.3444 17.1958 21.743 17.5229 21.1978 17.5229C20.7473 17.5229 20.5025 17.3118 20.4837 16.9463C20.4837 16.3705 20.953 15.4868 21.7047 14.3344C22.3249 13.3355 22.9068 12.6054 23.4332 11.9528L23.283 11.7033H21.1978C20.6714 12.1447 19.7892 13.2012 19.0939 14.3728C18.7184 15.007 18.361 15.8131 18.2296 16.4473C17.309 17.331 16.2758 17.7532 15.5437 17.7532C14.8672 17.7532 14.5668 17.4269 14.5668 16.9079C14.5668 16.3513 14.886 15.6212 15.4123 14.7375C16.1264 13.5083 16.821 12.6438 17.4224 11.952L17.2723 11.7025H15.2434C13.6846 12.8933 10.7125 17.8772 6.92769 17.8772C4.3169 17.8772 2.83553 16.4081 2.89184 13.8538C2.92939 11.6257 4.20662 9.30172 5.86007 7.97658C7.34378 6.76659 8.8846 6.30515 10.4622 6.30515C12.5286 6.30515 13.6744 7.36159 13.9185 8.01497L14.3877 7.41997C14.2563 6.1524 12.6029 5 10.086 5C7.64413 5 5.6528 5.65338 3.81164 6.97852C1.61696 8.58997 0.0385992 11.1059 0.00105648 13.9481C-0.0552576 17.271 2.14256 19 5.91873 19C8.65778 19 10.7156 17.5973 12.2267 16.0914C12.1383 16.3953 12.0898 16.6824 12.0898 16.9447C12.0898 17.9628 12.71 18.7313 14.2313 18.7313C15.9411 18.7313 17.3122 17.8476 18.1764 17.0407H18.1952C18.1764 17.3286 18.214 17.5973 18.289 17.8092C18.5331 18.4242 19.1909 18.7313 19.9988 18.7313C21.3324 18.7313 22.497 17.9819 23.1172 17.4829C24.0378 16.7336 24.8457 15.7539 25.7655 14.5055C26.1159 14.0225 26.7393 13.1084 27.1022 12.5654H28.7142C29.0145 12.5654 29.0521 12.6806 29.0145 12.8533C28.8268 13.218 28.1315 13.9097 27.6059 14.6783C27.0232 15.5428 26.5727 16.3881 26.5727 17.2326C26.5727 18.3018 27.408 18.7257 28.4514 18.7305C28.4537 18.7305 28.4561 18.7305 28.4584 18.7305C28.4592 18.7305 28.4608 18.7305 28.4616 18.7305C28.4647 18.7305 28.467 18.7305 28.4702 18.7305C28.5492 18.7305 28.6266 18.7273 28.7032 18.7217C28.7048 18.7217 28.7064 18.7217 28.7079 18.7217C28.7689 18.7177 28.8284 18.7113 28.8878 18.7033C30.0391 18.5681 31.0246 17.9268 31.5768 17.4813C32.4974 16.732 33.3053 15.7523 34.2251 14.5039C34.5755 14.0209 35.1989 13.1068 35.5618 12.5638H37.1738C37.4742 12.5638 37.5117 12.679 37.4742 12.8517C37.2864 13.2164 36.5911 13.9081 36.0655 14.6767C35.4828 15.5412 35.0323 16.3865 35.0323 17.231C35.0323 18.3066 35.8778 18.7289 36.9298 18.7289C37.0792 18.7289 37.2278 18.7129 37.3756 18.6841C38.0764 18.5649 39.0502 18.2011 40.1186 17.714C40.6168 18.4682 41.589 18.8481 42.8983 18.8057C44.3124 18.7601 45.6319 17.9795 46.6471 17.1878C46.6416 17.2478 46.6377 17.307 46.6369 17.3654C46.5994 18.537 47.5763 18.7673 48.3091 18.7097C48.4781 18.1907 48.7784 17.4613 49.2109 16.5776C49.6239 15.7131 50.2629 14.6567 50.7322 14.0233C51.7279 13.1204 52.8549 12.6214 53.6066 12.6214C54.208 12.6214 54.4708 12.8325 54.4708 13.2164C54.4708 13.6578 54.0203 14.1769 53.5315 14.9454C53.0434 15.7139 52.5921 16.4433 52.5921 17.2502C52.5569 18.2659 53.2757 18.6825 54.2573 18.7249C54.3746 18.7401 54.4959 18.7481 54.621 18.7481C55.8904 18.7481 57.005 18.0699 57.6448 17.5741C57.9631 18.4602 58.8602 18.7481 59.6478 18.7481C61.3013 18.7481 62.1647 18.0947 62.8225 17.4037L62.9915 16.8663C62.3712 17.3462 61.6955 17.7116 60.9626 17.7116C60.1922 17.7116 59.798 17.3854 59.798 16.732C59.798 15.5412 60.8312 13.889 61.8456 12.4486L64.5112 12.4119ZM42.4462 15.2933C42.6715 14.5247 43.1791 13.6802 43.8736 13.1036C44.4563 12.5854 45.1696 12.2775 45.8274 12.2775C46.0159 12.2775 46.1778 12.3047 46.3139 12.3559C46.547 12.4446 46.6275 12.7357 46.4735 12.9365C46.4735 12.9365 46.4124 13.3068 42.3876 15.5436L42.4462 15.2933Z" fill="white"/>
</g>
</svg>
