<svg width="16" height="16" viewBox="0 0 16 16" fill="none" xmlns="http://www.w3.org/2000/svg">
<path fill-rule="evenodd" clip-rule="evenodd" d="M4.18878 3.54291C3.91871 3.46177 3.63297 3.44668 3.35582 3.49893L3.35368 3.49933L3.35368 3.49933C3.12903 3.54091 2.91482 3.62653 2.72343 3.75123C2.53214 3.87586 2.3674 4.03716 2.23852 4.22597C2.10973 4.41465 2.01953 4.62694 1.97313 4.85063C1.92669 5.07448 1.92494 5.30513 1.96802 5.52931L1.96887 5.53374L1.96886 5.53375C2.01046 5.75846 2.09604 5.97263 2.2207 6.16397C2.34536 6.3553 2.50677 6.52018 2.69553 6.64903C2.88421 6.77782 3.0965 6.86801 3.32019 6.91442C3.54351 6.96075 3.77369 6.96251 3.99768 6.91962C4.24753 6.87053 4.48339 6.76665 4.68828 6.61547C4.98343 6.39769 5.39925 6.46041 5.61703 6.75556C5.83482 7.05072 5.77209 7.46653 5.47694 7.68432C5.11348 7.9525 4.695 8.13663 4.25172 8.22342L4.24945 8.22386C3.85306 8.30003 3.4456 8.29703 3.05037 8.21504C2.65514 8.13305 2.28004 7.97368 1.94666 7.74612C1.61335 7.5186 1.32816 7.22735 1.10777 6.88908C0.887787 6.55145 0.736763 6.17378 0.663148 5.77776C0.587382 5.3819 0.590701 4.97514 0.672506 4.58081C0.754498 4.18558 0.913864 3.81048 1.14143 3.4771C1.36891 3.14384 1.66 2.85872 1.99832 2.63829C2.33622 2.41814 2.71432 2.26695 3.11082 2.1934C3.59666 2.102 4.09749 2.12851 4.57099 2.27078C5.04489 2.41316 5.47745 2.66727 5.83258 3.01166C6.09589 3.26702 6.10234 3.68749 5.84698 3.95081C5.59162 4.21413 5.17115 4.22058 4.90784 3.96522C4.70533 3.76884 4.4588 3.62404 4.18878 3.54291Z" fill="#007D85"/>
<path fill-rule="evenodd" clip-rule="evenodd" d="M2.53678 6.59555C2.74238 6.89931 2.6628 7.31223 2.35903 7.51783C2.04165 7.73264 1.78178 8.02199 1.60204 8.36062C1.42236 8.69916 1.32837 9.07661 1.32831 9.4599C1.32831 9.45987 1.32831 9.45993 1.32831 9.4599V11.7958H4.56529C4.93209 11.7958 5.22945 12.0932 5.22945 12.46C5.22945 12.8268 4.93209 13.1241 4.56529 13.1241H0.664156C0.297353 13.1241 0 12.8268 0 12.46V9.4599C7.35364e-05 8.85952 0.147275 8.2682 0.428757 7.73787C0.710203 7.20761 1.11723 6.75435 1.6145 6.41779C1.91827 6.2122 2.33119 6.29178 2.53678 6.59555Z" fill="#007D85"/>
<path fill-rule="evenodd" clip-rule="evenodd" d="M8.28415 3.32831C7.0417 3.32831 6.03449 4.33552 6.03449 5.57798C6.03449 6.82043 7.0417 7.82764 8.28415 7.82764C9.52661 7.82764 10.5338 6.82043 10.5338 5.57798C10.5338 4.33552 9.52661 3.32831 8.28415 3.32831ZM4.70618 5.57798C4.70618 3.60191 6.30809 2 8.28415 2C10.2602 2 11.8621 3.60191 11.8621 5.57798C11.8621 7.55404 10.2602 9.15595 8.28415 9.15595C6.30809 9.15595 4.70618 7.55404 4.70618 5.57798Z" fill="#007D85"/>
<path fill-rule="evenodd" clip-rule="evenodd" d="M9.6806 7.85486C9.87883 7.54624 10.2897 7.45675 10.5983 7.65499C11.1559 8.0131 11.6153 8.50477 11.9347 9.08539C12.2542 9.66614 12.4233 10.3173 12.4274 10.9798L12.4274 10.9839L12.4274 14.3865C12.4274 14.7533 12.1301 15.0507 11.7633 15.0507H4.81418C4.44738 15.0507 4.15002 14.7533 4.15002 14.3865V11.0009C4.15217 10.3356 4.32228 9.68157 4.64451 9.09953C4.96679 8.51743 5.43086 8.02618 5.99352 7.67125C6.30376 7.47555 6.7139 7.56841 6.9096 7.87864C7.1053 8.18888 7.01244 8.59902 6.70221 8.79472C6.3286 9.03039 6.02052 9.35654 5.80662 9.74291C5.59284 10.129 5.47993 10.5628 5.47834 11.0042V13.7223H11.0991V10.986C11.0961 10.5449 10.9833 10.1118 10.7709 9.72568C10.5581 9.33887 10.252 9.01125 9.88047 8.77261C9.57184 8.57437 9.48236 8.16348 9.6806 7.85486Z" fill="#007D85"/>
<path fill-rule="evenodd" clip-rule="evenodd" d="M15.9999 8.24537H12.3289V6.91705H15.9999V8.24537Z" fill="#007D85"/>
<path fill-rule="evenodd" clip-rule="evenodd" d="M13.4956 9.41193V5.75049H14.8239V9.41193H13.4956Z" fill="#007D85"/>
</svg>
