<svg width="48" height="49" viewBox="0 0 48 49" fill="none" xmlns="http://www.w3.org/2000/svg">
<rect y="12.2648" width="27.9999" height="4.00816" fill="url(#paint0_linear_596_7724)"/>
<path fill-rule="evenodd" clip-rule="evenodd" d="M23.9999 42.3259C33.941 42.3259 41.9998 34.2506 41.9998 24.2892C41.9998 14.3278 33.941 6.25246 23.9999 6.25246C14.0588 6.25246 5.99999 14.3278 5.99999 24.2892C5.99999 34.2506 14.0588 42.3259 23.9999 42.3259ZM23.9999 45.332C35.5978 45.332 44.9998 35.9108 44.9998 24.2892C44.9998 12.6675 35.5978 3.24634 23.9999 3.24634C12.402 3.24634 3 12.6675 3 24.2892C3 35.9108 12.402 45.332 23.9999 45.332Z" fill="white"/>
<path fill-rule="evenodd" clip-rule="evenodd" d="M27.6065 37.9846C29.04 34.6328 29.9999 29.7928 29.9999 24.2892C29.9999 18.7855 29.04 13.9456 27.6065 10.5938C26.8874 8.91259 26.1082 7.7441 25.3959 7.03959C24.6964 6.34783 24.2281 6.25246 24 6.25246C23.7718 6.25246 23.3036 6.34783 22.6041 7.03959C21.8917 7.7441 21.1125 8.91259 20.3934 10.5938C18.9599 13.9456 18 18.7855 18 24.2892C18 29.7928 18.9599 34.6328 20.3934 37.9846C21.1125 39.6658 21.8917 40.8343 22.6041 41.5388C23.3036 42.2305 23.7718 42.3259 24 42.3259C24.2281 42.3259 24.6964 42.2305 25.3959 41.5388C26.1082 40.8343 26.8874 39.6658 27.6065 37.9846ZM24 45.332C28.9705 45.332 32.9999 35.9108 32.9999 24.2892C32.9999 12.6675 28.9705 3.24634 24 3.24634C19.0294 3.24634 15 12.6675 15 24.2892C15 35.9108 19.0294 45.332 24 45.332Z" fill="white"/>
<path fill-rule="evenodd" clip-rule="evenodd" d="M2.9997 22.7861L44.9995 22.7861L44.9995 25.7923L2.9997 25.7923L2.9997 22.7861Z" fill="white"/>
<defs>
<linearGradient id="paint0_linear_596_7724" x1="27.9999" y1="12.2648" x2="0" y2="12.2648" gradientUnits="userSpaceOnUse">
<stop stop-color="#39CDEE"/>
<stop offset="1" stop-color="#39CDEE" stop-opacity="0.4"/>
</linearGradient>
</defs>
</svg>
