<svg width="12" height="12" viewBox="0 0 12 12" fill="none" xmlns="http://www.w3.org/2000/svg">
<path fill-rule="evenodd" clip-rule="evenodd" d="M1.488 1.98437C1.488 1.71137 1.712 1.48837 1.984 1.48837H9.853C10.126 1.48837 10.349 1.71137 10.349 1.98437V6.99437C10.349 7.26737 10.126 7.49037 9.853 7.49037H5.684L3.315 9.14537V7.49037H1.984C1.712 7.49037 1.488 7.26737 1.488 6.99437V1.98437ZM1.827 8.97237V12.0004L6.153 8.97837H9.853C10.947 8.97837 11.838 8.08837 11.838 6.99437V1.98437C11.838 0.890366 10.947 0.000366211 9.853 0.000366211H1.984C0.89 0.000366211 0 0.890366 0 1.98437V6.99437C0 8.03537 0.806 8.89137 1.827 8.97237ZM3.81796 5.20297H2.48596V3.71497H3.81796V5.20297ZM5.25696 5.20297H6.58896V3.71497H5.25696V5.20297ZM9.35798 5.20297H8.02698V3.71497H9.35798V5.20297Z" fill="#007D85"/>
</svg>
