<svg width="12" height="13" viewBox="0 0 12 13" fill="none" xmlns="http://www.w3.org/2000/svg">
<path fill-rule="evenodd" clip-rule="evenodd" d="M6 11.5C6.2456 11.5 6.73715 11.2749 7.22689 10.2954C7.47204 9.80514 7.67553 9.19525 7.8121 8.5H4.1879C4.32447 9.19525 4.52796 9.80514 4.77311 10.2954C5.26285 11.2749 5.7544 11.5 6 11.5ZM4.0453 7.5C4.01572 7.17814 4 6.84396 4 6.5C4 6.15604 4.01572 5.82186 4.0453 5.5H7.9547C7.98428 5.82186 8 6.15604 8 6.5C8 6.84396 7.98428 7.17814 7.9547 7.5H4.0453ZM8.82929 8.5C8.64683 9.5325 8.32707 10.4353 7.91388 11.1206C9.10729 10.6258 10.0675 9.68201 10.584 8.5H8.82929ZM10.9 7.5H8.95852C8.9858 7.17479 9 6.84071 9 6.5C9 6.15929 8.9858 5.82521 8.95852 5.5H10.9C10.9656 5.82311 11 6.15753 11 6.5C11 6.84247 10.9656 7.17689 10.9 7.5ZM3.04148 7.5H1.10002C1.03443 7.17689 1 6.84247 1 6.5C1 6.15753 1.03443 5.82311 1.10002 5.5H3.04148C3.0142 5.82521 3 6.15929 3 6.5C3 6.84071 3.0142 7.17479 3.04148 7.5ZM1.41604 8.5H3.17071C3.35317 9.5325 3.67293 10.4353 4.08612 11.1206C2.89271 10.6258 1.93249 9.68201 1.41604 8.5ZM4.1879 4.5H7.8121C7.67553 3.80475 7.47204 3.19486 7.22689 2.70457C6.73715 1.72509 6.2456 1.5 6 1.5C5.7544 1.5 5.26285 1.72509 4.77311 2.70457C4.52796 3.19486 4.32447 3.80475 4.1879 4.5ZM8.82929 4.5H10.584C10.0675 3.31799 9.10729 2.37425 7.91388 1.87938C8.32707 2.56471 8.64683 3.4675 8.82929 4.5ZM4.08612 1.87938C3.67293 2.56471 3.35317 3.4675 3.17071 4.5H1.41604C1.93249 3.31799 2.89271 2.37425 4.08612 1.87938ZM6 0.5C9.31371 0.5 12 3.18629 12 6.5C12 9.81371 9.31371 12.5 6 12.5C2.68629 12.5 0 9.81371 0 6.5C0 3.18629 2.68629 0.5 6 0.5Z" fill="white"/>
</svg>
