<svg width="16" height="16" viewBox="0 0 16 16" fill="none" xmlns="http://www.w3.org/2000/svg">
<path fill-rule="evenodd" clip-rule="evenodd" d="M11.1667 6.66335V9.9967H12.6667V5.49178C12.6667 4.96134 12.456 4.45264 12.0809 4.07756L9.91912 1.9158C9.54405 1.54073 9.03534 1.33002 8.50491 1.33002H3C2.44772 1.33002 2 1.77773 2 2.33002V13.6634C2 14.2156 2.44772 14.6634 3 14.6634H7.33334V13.1634H3.5V2.83002H8V5.33002V5.99668V6.66335L11.1667 6.66335ZM4.66667 10.6634H7.33334V11.9967H4.66667V10.6634ZM9.33333 5.33002L11.1398 5.33002C11.1153 5.25847 11.0747 5.19271 11.0202 5.13822L9.33333 3.45134V5.33002ZM4.66667 9.33002V7.99668L10 7.99668V9.33002H4.66667ZM9.04103 12.947L9.74814 12.2399L11.1625 13.6543L14.6968 10.12L15.4039 10.8271L11.1612 15.0698L10.4541 14.3627L10.4554 14.3614L9.04103 12.947Z" fill="#007D85"/>
</svg>
