<svg width="46" height="46" viewBox="0 0 46 46" fill="none" xmlns="http://www.w3.org/2000/svg">
<path d="M23 42.4285C33.7301 42.4285 42.4286 33.73 42.4286 22.9999C42.4286 12.2698 33.7301 3.57129 23 3.57129C12.2699 3.57129 3.57141 12.2698 3.57141 22.9999C3.57141 33.73 12.2699 42.4285 23 42.4285Z" stroke="url(#paint0_linear_166_5313)" stroke-opacity="0.7" stroke-width="6.85714"/>
<path d="M23 3.57129C33.7301 3.57129 42.4285 12.2698 42.4285 22.9999C42.4285 33.73 33.7301 42.4285 23 42.4285C12.2699 42.4285 3.57141 33.73 3.57141 22.9999C3.57141 12.2698 12.2699 3.57129 23 3.57129Z" stroke="url(#paint1_linear_166_5313)" stroke-opacity="0.7" stroke-width="6.85714"/>
<path d="M23 3.57129C33.7301 3.57129 42.4285 12.2698 42.4285 22.9999C42.4285 33.73 33.7301 42.4285 23 42.4285C12.2699 42.4285 3.57141 33.73 3.57141 22.9999C3.57141 12.2698 12.2699 3.57129 23 3.57129Z" stroke="url(#paint2_linear_166_5313)" stroke-opacity="0.7" stroke-width="6.85714"/>
<path d="M31.2285 12.0283L32.3399 15.0313L35.3428 16.1426L32.3399 17.2539L31.2285 20.2569L30.1172 17.2539L27.1143 16.1426L30.1172 15.0313L31.2285 12.0283Z" fill="black"/>
<path fill-rule="evenodd" clip-rule="evenodd" d="M21.8571 15.031V15.0338C21.8556 18.8024 18.8001 21.8571 15.0311 21.8571C14.3999 21.8571 13.8882 22.3687 13.8882 22.9999C13.8882 23.1577 13.9202 23.308 13.9781 23.4448C14.1516 23.855 14.5577 24.1428 15.0311 24.1428C18.8001 24.1428 21.8556 27.1974 21.8571 30.9661V30.9688C21.8571 31.6 22.3688 32.1117 23 32.1117C23.0394 32.1117 23.0784 32.1097 23.1168 32.1058C23.6163 32.055 24.0207 31.6827 24.1196 31.1991C24.1348 31.1247 24.1428 31.0477 24.1428 30.9688C24.1428 27.1989 27.199 24.1428 30.9689 24.1428C31.6001 24.1428 32.1117 23.6311 32.1117 22.9999C32.1117 22.3687 31.6001 21.8571 30.9689 21.8571C27.1999 21.8571 24.1443 18.8024 24.1428 15.0338V15.031C24.1428 14.3999 23.6312 13.8882 23 13.8882C22.3688 13.8882 21.8571 14.3999 21.8571 15.031ZM23 26.5472C23.8273 25.0593 25.0593 23.8273 26.5472 22.9999C25.0593 22.1726 23.8273 20.9406 23 19.4527C22.1726 20.9406 20.9407 22.1726 19.4527 22.9999C20.9407 23.8273 22.1726 25.0593 23 26.5472Z" fill="black"/>
<defs>
<linearGradient id="paint0_linear_166_5313" x1="23" y1="0.142769" x2="23" y2="45.8571" gradientUnits="userSpaceOnUse">
<stop stop-color="#A91968"/>
<stop offset="1" stop-color="#A91968" stop-opacity="0"/>
</linearGradient>
<linearGradient id="paint1_linear_166_5313" x1="0.142841" y1="22.9999" x2="45.8571" y2="22.9999" gradientUnits="userSpaceOnUse">
<stop stop-color="#6047FF"/>
<stop offset="1" stop-color="#6047FF" stop-opacity="0"/>
</linearGradient>
<linearGradient id="paint2_linear_166_5313" x1="0.142841" y1="22.9999" x2="45.8571" y2="22.9999" gradientUnits="userSpaceOnUse">
<stop stop-color="#176EE8"/>
<stop offset="1" stop-color="#6047FF" stop-opacity="0"/>
</linearGradient>
</defs>
</svg>